<svg width="1792" height="1792" xmlns="http://www.w3.org/2000/svg">

 <g>
  <title>background</title>
  <rect fill="none" id="canvas_background" height="402" width="582" y="-1" x="-1"/>
 </g>
 <g>
  <title>Layer 1</title>
  <path fill="#ffb81d" id="svg_1" d="m1152,896q0,106 -75,181t-181,75t-181,-75t-75,-181t75,-181t181,-75t181,75t75,181zm-256,-544q-148,0 -273,73t-198,198t-73,273t73,273t198,198t273,73t273,-73t198,-198t73,-273t-73,-273t-198,-198t-273,-73zm768,544q0,209 -103,385.5t-279.5,279.5t-385.5,103t-385.5,-103t-279.5,-279.5t-103,-385.5t103,-385.5t279.5,-279.5t385.5,-103t385.5,103t279.5,279.5t103,385.5z"/>
 </g>
</svg>