<?xml version="1.0" standalone="no"?>
<!DOCTYPE svg PUBLIC "-//W3C//DTD SVG 20010904//EN"
 "http://www.w3.org/TR/2001/REC-SVG-20010904/DTD/svg10.dtd">
<svg version="1.0" xmlns="http://www.w3.org/2000/svg"
 width="1200.000000pt" height="675.000000pt" viewBox="0 0 1200.000000 675.000000"
 preserveAspectRatio="xMidYMid meet">
<metadata>
Created by potrace 1.16, written by Peter Selinger 2001-2019
</metadata>
<g transform="translate(0.000000,675.000000) scale(0.100000,-0.100000)"
fill="#000000" stroke="none">
<path d="M5845 6040 c-3 -5 -17 -10 -29 -10 -13 0 -36 -6 -50 -14 -21 -10 -35
-11 -61 -4 -28 9 -38 7 -62 -10 -21 -15 -52 -22 -123 -27 -69 -6 -102 -13
-119 -26 -15 -13 -40 -19 -71 -19 -34 0 -52 -5 -65 -20 -10 -11 -26 -20 -35
-20 -9 0 -20 -4 -26 -9 -5 -4 -23 -13 -40 -19 -25 -8 -32 -7 -41 7 -10 15 -14
14 -47 -3 -21 -11 -36 -27 -36 -37 0 -10 -4 -21 -10 -24 -5 -3 -10 3 -10 14 0
12 -5 21 -12 21 -12 0 -72 -43 -101 -72 -10 -10 -29 -18 -43 -18 -17 0 -28 -7
-31 -20 -3 -11 -9 -18 -13 -15 -14 9 -60 -41 -60 -64 0 -14 -6 -21 -20 -21
-11 0 -20 -6 -20 -12 0 -15 -63 -68 -80 -68 -13 0 -71 -57 -95 -93 -10 -17
-26 -27 -40 -27 -31 0 -64 -43 -72 -92 -4 -26 -14 -45 -29 -55 -13 -8 -24 -23
-24 -33 0 -9 -8 -28 -19 -41 -10 -13 -26 -41 -36 -62 -11 -23 -27 -40 -41 -43
-26 -7 -32 -29 -11 -37 8 -4 5 -11 -10 -24 -15 -12 -24 -34 -29 -71 -4 -29
-11 -55 -15 -58 -5 -3 -9 -18 -9 -34 0 -15 -9 -48 -19 -73 -32 -73 -42 -235
-39 -609 2 -190 6 -344 10 -342 10 6 31 -39 56 -116 32 -102 33 -110 12 -110
-11 0 -37 30 -71 82 -51 77 -96 118 -130 118 -29 0 -69 -53 -69 -93 0 -24 5
-37 13 -37 8 0 24 -11 37 -25 14 -15 35 -25 52 -25 15 0 28 -4 28 -10 0 -5 7
-10 15 -10 8 0 15 -3 15 -7 0 -5 25 -39 56 -78 l56 -70 -36 -30 c-20 -16 -36
-35 -36 -41 0 -23 43 -114 54 -114 6 0 21 -16 34 -36 12 -19 34 -39 47 -44 15
-6 25 -18 25 -29 0 -10 3 -32 6 -49 6 -28 4 -31 -22 -34 -39 -4 -42 -36 -10
-98 14 -27 26 -66 26 -85 0 -19 4 -43 9 -53 31 -61 48 -234 21 -217 -5 3 -10
2 -10 -2 0 -5 -12 -10 -27 -11 -51 -4 -37 -14 16 -10 l53 3 -1 -230 c-3 -406
-25 -607 -80 -730 -12 -27 -31 -59 -42 -71 -25 -27 -219 -124 -248 -124 -6 0
-19 -4 -29 -9 -9 -6 -38 -17 -63 -26 -26 -9 -62 -32 -80 -51 -18 -19 -37 -34
-42 -34 -5 0 -53 -43 -106 -96 -91 -90 -140 -128 -201 -155 -14 -5 -34 -19
-45 -29 -11 -10 -34 -21 -51 -24 -18 -4 -40 -16 -50 -27 -9 -10 -24 -19 -33
-19 -30 0 -147 -65 -215 -120 -37 -30 -83 -65 -100 -76 -17 -12 -37 -29 -45
-38 -7 -9 -19 -16 -25 -16 -7 0 -25 -13 -41 -30 -16 -16 -34 -30 -40 -30 -7 0
-23 -9 -36 -21 -13 -12 -40 -30 -59 -40 -19 -11 -53 -31 -75 -44 -22 -13 -51
-30 -65 -37 -14 -7 -27 -15 -30 -19 -3 -3 -21 -17 -41 -30 -129 -85 -184 -125
-264 -187 -135 -107 -143 -113 -204 -165 -56 -49 -108 -77 -141 -77 -20 0 -80
-46 -80 -61 0 -5 625 -9 1553 -9 l1552 1 -85 76 c-124 111 -409 401 -450 456
-19 27 -52 69 -73 95 -55 69 -163 233 -182 278 -67 155 -85 224 -85 320 0 76
4 103 21 135 16 32 25 40 40 36 16 -4 18 -3 9 8 -9 11 -8 19 3 35 8 12 18 17
21 12 3 -6 0 -12 -6 -15 -10 -3 -8 -10 5 -23 15 -16 19 -17 27 -4 5 8 13 11
17 6 4 -5 2 -11 -4 -13 -22 -8 -14 -33 20 -66 19 -18 37 -46 40 -64 3 -17 16
-53 27 -80 46 -103 65 -143 70 -143 15 0 28 71 25 130 -11 190 -9 222 9 232
12 7 14 13 7 22 -8 9 -3 20 18 40 16 16 33 26 38 23 5 -3 17 3 26 14 9 10 28
19 42 19 14 0 25 4 25 9 0 5 11 8 25 7 14 0 24 -5 23 -11 -3 -13 25 -64 35
-64 4 -1 12 -1 18 -1 7 0 8 -11 4 -30 -5 -24 -3 -30 9 -30 9 0 20 -10 25 -23
5 -12 28 -42 52 -67 44 -45 69 -82 69 -103 0 -20 43 -117 52 -117 4 0 8 -6 8
-13 0 -18 28 -75 41 -82 5 -4 9 -21 9 -40 0 -18 7 -40 15 -49 8 -8 15 -21 15
-30 0 -8 5 -18 11 -22 6 -3 9 -15 6 -25 -3 -11 -1 -19 4 -19 5 0 9 -8 9 -18 0
-11 10 -27 21 -38 12 -10 28 -34 36 -51 7 -18 17 -33 22 -33 4 0 6 -11 4 -24
-4 -17 1 -27 15 -35 11 -6 22 -7 26 -4 3 3 6 0 6 -8 0 -8 9 -20 21 -27 14 -9
18 -19 13 -34 -5 -18 -3 -20 20 -14 19 5 26 3 26 -9 0 -8 5 -15 11 -15 5 0 3
-10 -5 -22 -9 -12 -16 -29 -15 -38 0 -11 2 -10 8 3 6 17 8 18 20 3 12 -14 11
-19 -4 -30 -29 -21 -8 -35 51 -35 47 1 57 4 64 23 7 18 9 19 15 4 4 -9 12 -15
19 -12 7 3 21 -4 31 -16 13 -14 31 -20 62 -20 25 0 55 -8 70 -18 17 -10 49
-18 83 -19 30 -1 64 -2 75 -2 57 -3 84 1 122 19 24 11 49 20 57 20 8 0 19 6
23 13 4 7 26 21 48 32 47 21 65 38 65 58 0 9 4 17 9 19 15 5 120 138 127 160
3 12 20 32 36 46 16 14 27 30 24 38 -3 7 2 15 10 18 8 3 14 16 14 28 0 24 51
88 69 88 6 0 11 20 11 46 0 38 3 45 16 40 13 -5 15 -2 11 13 -5 21 10 31 44
31 13 0 24 10 31 31 8 22 13 27 19 18 10 -16 17 -10 22 17 1 10 5 24 9 29 49
81 57 111 36 134 -10 11 -10 13 0 7 8 -5 12 0 13 16 1 20 2 19 11 -7 16 -51
10 -270 -11 -405 -38 -239 -100 -506 -154 -671 l-55 -164 1546 -3 c850 -1
1547 -1 1548 1 5 4 -24 85 -46 128 -11 21 -20 47 -20 58 0 11 -4 23 -10 26 -5
3 -10 14 -10 24 0 23 -154 333 -173 349 -8 7 -22 31 -33 54 -10 24 -22 48 -26
53 -5 6 -35 46 -68 90 -75 102 -128 162 -215 249 -83 81 -99 96 -109 96 -3 0
-39 24 -79 54 -109 82 -253 157 -392 206 -414 145 -619 214 -670 225 -33 7
-148 35 -255 63 -107 28 -251 58 -320 67 -68 8 -126 18 -129 21 -3 2 5 28 17
57 l22 52 -29 -32 c-15 -18 -31 -30 -35 -26 -3 3 -6 2 -6 -3 0 -6 5 -15 11
-21 9 -9 7 -10 -10 -6 -18 4 -24 -2 -42 -42 -11 -26 -18 -49 -15 -52 3 -4 -3
-12 -14 -20 -11 -8 -20 -21 -20 -30 0 -19 -31 -73 -43 -73 -4 0 -5 5 -2 11 4
6 -3 5 -14 -3 -13 -8 -20 -20 -17 -31 2 -9 0 -15 -4 -12 -5 3 -27 -32 -49 -78
-55 -117 -144 -209 -225 -232 -32 -9 -60 -14 -63 -11 -3 3 -14 1 -25 -5 -11
-6 -30 -8 -43 -5 -21 5 -23 10 -18 48 3 25 2 39 -3 35 -5 -5 -9 -14 -9 -20 0
-7 -18 -12 -45 -12 -25 0 -60 -7 -78 -14 -30 -13 -35 -12 -57 9 l-24 22 -23
-23 c-49 -51 -57 -54 -74 -30 -9 12 -21 21 -27 19 -7 -1 -31 2 -54 6 -34 6
-46 4 -59 -9 -10 -10 -25 -14 -38 -11 -12 3 -37 6 -56 6 -26 0 -31 3 -20 10
13 8 12 10 -4 10 -11 0 -27 7 -37 16 -10 9 -32 24 -51 33 -21 12 -43 37 -61
71 -15 29 -39 63 -52 76 -14 13 -25 32 -25 42 0 11 -18 37 -40 58 -23 22 -40
48 -39 59 2 37 -1 44 -28 59 -16 8 -41 26 -58 40 -16 14 -34 26 -38 26 -14 0
-77 54 -77 66 0 6 -7 17 -15 24 -23 19 -65 112 -65 143 0 28 -51 116 -75 130
-8 4 -15 13 -15 18 0 6 -6 17 -14 25 -8 8 -18 34 -21 58 -5 31 -17 54 -41 77
-18 19 -34 41 -34 49 0 8 -6 33 -14 55 -11 31 -21 42 -47 51 -42 14 -47 38
-20 98 12 25 21 58 21 74 0 18 9 36 25 50 30 26 31 39 5 72 -11 14 -20 32 -20
41 0 9 -7 19 -15 23 -8 3 -15 14 -15 25 0 11 -23 44 -51 73 -28 29 -57 65 -65
79 -7 15 -23 37 -34 50 -41 46 -78 154 -100 291 -12 73 -25 143 -30 155 -5 12
-6 25 -1 27 8 5 5 47 -6 76 -4 8 -5 20 -4 26 0 6 -6 24 -14 40 -8 16 -15 54
-15 84 0 69 33 221 59 276 21 43 29 123 17 162 -4 12 0 66 9 119 21 123 72
239 118 268 29 19 32 25 33 75 1 30 5 62 8 70 14 35 23 110 13 110 -10 0 6 19
102 117 28 29 51 57 51 62 0 17 20 23 35 11 12 -10 21 -6 46 23 17 19 50 43
74 53 24 10 48 28 54 41 6 13 19 23 30 23 11 0 23 5 26 10 9 14 78 13 93 -2 9
-9 12 -9 12 1 0 10 10 12 40 7 32 -5 40 -3 40 9 0 18 1 18 34 5 17 -6 26 -6
26 0 0 6 9 10 20 10 11 0 20 -5 20 -11 0 -7 10 -9 25 -5 17 4 31 1 42 -10 15
-14 17 -14 25 0 6 11 17 14 38 9 17 -3 36 0 44 6 7 6 21 8 30 5 11 -4 26 2 42
16 20 20 24 21 24 7 0 -29 29 -19 52 18 28 43 38 44 38 3 l0 -32 30 29 c23 22
30 25 30 12 0 -9 7 -17 15 -17 11 0 12 -5 5 -26 -14 -36 -13 -39 8 -22 26 24
99 32 110 13 7 -14 12 -13 35 5 20 16 25 17 21 6 -9 -23 8 -20 49 8 36 24 36
24 39 4 3 -20 10 -22 102 -25 79 -2 106 -7 132 -24 19 -11 34 -25 34 -30 0 -5
8 -9 18 -9 9 0 34 -9 54 -20 49 -26 110 -35 137 -20 22 11 136 21 158 12 7 -2
10 -8 7 -13 -3 -5 9 -9 26 -9 33 0 70 -20 110 -58 14 -14 35 -31 48 -40 38
-25 141 -171 148 -211 4 -20 13 -45 20 -56 25 -41 103 -305 97 -327 -2 -4 4
-51 12 -105 10 -62 15 -185 16 -338 2 -210 3 -226 10 -130 4 61 12 142 18 180
44 290 50 378 36 492 -8 61 -11 120 -8 132 3 12 1 55 -5 94 -6 40 -17 109 -23
154 -9 64 -19 94 -45 135 -19 29 -34 57 -34 63 0 6 -9 27 -20 48 -11 20 -20
45 -20 56 0 10 -12 26 -26 36 -19 12 -25 23 -21 41 2 13 0 24 -5 24 -5 0 -6 9
-3 20 3 11 3 20 -2 20 -4 0 -17 7 -27 15 -16 12 -17 17 -5 31 11 14 10 19 -15
36 -21 16 -24 23 -14 30 10 6 5 15 -19 36 -25 20 -31 32 -27 48 8 29 -12 64
-36 64 -14 0 -20 7 -20 23 0 31 -67 90 -172 153 -10 6 -27 19 -38 29 -11 10
-20 13 -20 7 0 -25 -17 -10 -29 25 -14 37 -46 72 -68 73 -6 0 -25 11 -41 25
-17 14 -40 25 -51 25 -12 0 -34 6 -49 14 -15 7 -48 16 -74 20 -26 4 -50 11
-53 17 -4 5 -15 9 -25 9 -10 0 -26 10 -35 22 -13 19 -18 21 -35 11 -15 -10
-22 -10 -32 0 -7 6 -25 18 -40 26 -16 8 -28 18 -28 23 0 4 -7 8 -15 8 -8 0
-15 -4 -15 -9 0 -16 -40 -23 -55 -11 -18 15 -93 22 -101 9 -9 -14 -41 -10 -48
6 -6 17 -42 20 -51 5z"/>
<path d="M5151 4052 c-25 -20 -47 -28 -85 -30 -28 -1 -62 -3 -76 -5 -14 -1
-26 3 -28 8 -5 19 -54 25 -83 9 -16 -8 -29 -18 -29 -22 0 -4 -14 -22 -31 -40
-27 -28 -32 -42 -33 -87 0 -30 4 -59 10 -65 18 -18 73 -15 87 3 11 15 40 29
159 73 23 8 78 13 148 13 97 0 125 -4 206 -30 52 -17 92 -35 88 -40 -3 -5 -81
-8 -177 -8 -164 2 -174 1 -212 -21 -22 -13 -52 -36 -67 -51 -15 -15 -36 -33
-47 -39 -12 -6 -21 -18 -21 -27 0 -15 -2 -15 -13 2 -10 12 -16 14 -21 7 -4 -7
-2 -12 4 -12 6 0 8 -4 5 -10 -4 -6 9 -11 32 -12 21 -1 47 -3 58 -4 11 -1 26
-2 33 -3 6 -1 12 -10 12 -21 0 -28 23 -34 59 -16 16 9 38 16 47 16 10 0 28 10
41 22 l23 21 26 -24 c21 -20 38 -24 100 -27 84 -5 105 6 131 66 16 39 30 40
79 7 20 -14 42 -25 49 -25 7 0 15 -7 19 -15 3 -8 12 -15 21 -15 8 0 24 -5 35
-12 27 -17 35 -4 14 26 -9 15 -14 29 -10 33 10 10 82 -27 122 -63 20 -19 46
-34 57 -34 17 0 19 5 13 43 -3 23 -10 70 -15 105 -5 37 -17 72 -27 84 -34 37
-176 138 -195 138 -11 0 -36 11 -57 24 -55 37 -83 40 -173 20 -63 -14 -85 -15
-100 -6 -23 15 -59 16 -59 1 0 -14 -42 -1 -57 19 -10 13 -10 19 4 34 15 17 15
18 -8 18 -13 -1 -39 -13 -58 -28z"/>
<path d="M6943 3934 c3 -4 0 -13 -8 -20 -12 -12 -22 -12 -71 1 -73 19 -98 19
-114 0 -8 -10 -32 -14 -82 -14 -50 0 -75 -4 -87 -15 -10 -9 -24 -16 -31 -16
-7 0 -21 -6 -29 -14 -9 -8 -36 -25 -61 -38 -103 -55 -116 -65 -154 -122 -37
-55 -35 -70 9 -63 30 5 35 3 35 -14 0 -22 25 -26 37 -5 4 8 23 16 42 18 29 3
37 -1 51 -27 21 -39 48 -51 127 -60 71 -7 91 2 119 57 25 48 42 36 68 -45 7
-23 47 -37 128 -44 57 -4 68 -3 68 10 0 9 -8 21 -17 26 -10 6 -14 11 -9 11 5
0 18 -7 28 -17 25 -22 31 -12 23 37 -5 29 -18 53 -44 79 -32 32 -49 40 -117
54 -43 8 -105 19 -136 22 -32 4 -58 10 -58 14 0 11 66 38 129 52 62 14 211 6
222 -12 4 -6 12 -8 19 -4 7 4 15 4 19 -1 3 -5 18 -15 34 -22 29 -12 47 -46 47
-88 0 -19 5 -25 18 -22 12 2 22 23 34 73 9 38 14 73 11 77 -2 5 0 15 6 22 8 9
3 20 -18 40 -35 34 -90 48 -155 39 -38 -5 -47 -3 -41 7 4 7 2 16 -6 21 -16 10
-46 12 -36 3z"/>
<path d="M5848 2855 c-6 -14 -18 -25 -27 -25 -9 0 -25 -7 -35 -15 -23 -18 -66
-19 -119 -4 -22 6 -41 8 -43 6 -3 -2 -6 -28 -7 -56 -2 -49 1 -55 35 -87 21
-19 48 -34 61 -34 31 0 63 -25 71 -53 4 -17 15 -26 35 -30 16 -3 30 -14 33
-24 3 -11 16 -19 33 -21 15 -1 34 -7 41 -13 9 -7 33 -9 67 -5 44 6 61 14 99
50 49 45 98 68 190 86 48 9 62 17 91 54 20 23 32 47 29 52 -12 16 -81 36 -103
29 -14 -5 -25 -1 -35 12 -13 17 -15 16 -44 -14 -16 -18 -40 -35 -54 -39 -40
-10 -134 23 -169 59 -33 35 -117 97 -130 97 -4 0 -13 -11 -19 -25z"/>
<path d="M5380 2306 c0 -15 30 -64 42 -69 134 -54 177 -68 253 -81 188 -31
322 -37 525 -23 63 5 142 10 175 12 34 2 79 10 100 18 22 9 53 18 70 22 70 16
-27 32 -225 39 -46 1 -74 -10 -64 -25 6 -10 3 -10 -181 -11 -95 -1 -127 3
-153 16 -19 10 -42 14 -54 11 -11 -4 -40 -1 -64 5 -33 9 -44 18 -44 32 0 10
-4 16 -10 13 -5 -3 -10 -2 -10 4 0 12 -60 21 -175 25 -49 2 -111 7 -137 11
-27 4 -48 5 -48 1z"/>
</g>
</svg>
