<svg width="128" height="128" xmlns="http://www.w3.org/2000/svg">

 <g>
  <title>background</title>
  <rect fill="none" id="canvas_background" height="402" width="582" y="-1" x="-1"/>
 </g>
 <g>
  <title>Layer 1</title>
  <path id="svg_2" stroke-width="2" stroke-miterlimit="10" stroke="#ffb81d" fill="none" d="m118.1,96.855c0,6.314 -5.977,11.344 -12.35,11.344l-82.22,0c-6.374,0 -11.63,-5.029 -11.63,-11.344l0,-50.03c0,-6.315 5.256,-10.625 11.63,-10.625l82.22,0c6.373,0 12.35,4.31 12.35,10.625l0,50.03z"/>
  <line id="svg_3" y2="95.6" y1="95.6" x2="117.9" x1="11.9" stroke-width="2" stroke-miterlimit="10" stroke="#ffb81d" fill="none"/>
  <path id="svg_4" stroke-width="2" stroke-miterlimit="10" stroke="#ffb81d" fill="none" d="m84.779,36.2c0.063,0 0.111,-0.979 0.111,-1.53c0,-7.158 -5.803,-12.869 -12.961,-12.869l-16.198,0c-7.157,0 -12.959,5.711 -12.959,12.869c0,0.552 0.045,1.53 0.113,1.53l41.894,0z"/>
  <path id="svg_5" stroke-width="2" stroke-miterlimit="10" stroke="#ffb81d" fill="none" d="m102.711,36.2l-76.141,0c-7.158,0 -14.67,3.373 -14.67,10.53l0,11.34c0,7.158 5.713,14.129 12.87,14.129l24.521,0c-0.022,-1.799 -0.041,-1.074 -0.041,-1.35c0,-4.922 3.99,-9.45 8.91,-9.45l11.34,0c4.918,0 8.91,4.528 8.91,9.45c0,0.275 -0.02,-0.449 -0.039,1.35l26.139,0c7.156,0 13.59,-6.971 13.59,-14.129l0,-11.34c0,-7.157 -8.233,-10.53 -15.389,-10.53z"/>
  <path id="svg_6" stroke-width="2" stroke-miterlimit="10" stroke="#ffb81d" fill="none" d="m78.41,70.4c0,4.918 -3.625,9 -8.1,9l-12.96,0c-4.473,0 -8.1,-4.082 -8.1,-9l0,0c0,-4.918 3.627,-9 8.1,-9l12.96,0c4.475,0 8.1,4.082 8.1,9l0,0z"/>
 </g>
</svg>