<svg width="32" height="32" xmlns="http://www.w3.org/2000/svg">

 <g>
  <title>background</title>
  <rect fill="none" id="canvas_background" height="402" width="582" y="-1" x="-1"/>
 </g>
 <g>
  <title>Layer 1</title>
  <circle id="svg_1" r="0.5" fill="#ffb81d" cy="4.5" cx="7.5"/>
  <circle id="svg_2" r="0.5" fill="#ffb81d" cy="4.5" cx="5.5"/>
  <circle id="svg_3" r="0.5" fill="#ffb81d" cy="4.5" cx="3.5"/>
  <path id="svg_4" fill="#ffb81d" d="m30.5,7l-29,0c-0.276,0 -0.5,-0.224 -0.5,-0.5s0.224,-0.5 0.5,-0.5l29,0c0.276,0 0.5,0.224 0.5,0.5s-0.224,0.5 -0.5,0.5z"/>
  <path id="svg_5" fill="#ffb81d" d="m29.5,28l-4,0c-0.276,0 -0.5,-0.224 -0.5,-0.5s0.224,-0.5 0.5,-0.5l4,0c0.275,0 0.5,-0.225 0.5,-0.5l0,-23c0,-0.275 -0.225,-0.5 -0.5,-0.5l-27,0c-0.275,0 -0.5,0.225 -0.5,0.5l0,23c0,0.275 0.225,0.5 0.5,0.5l4,0c0.276,0 0.5,0.224 0.5,0.5s-0.224,0.5 -0.5,0.5l-4,0c-0.827,0 -1.5,-0.673 -1.5,-1.5l0,-23c0,-0.827 0.673,-1.5 1.5,-1.5l27,0c0.827,0 1.5,0.673 1.5,1.5l0,23c0,0.827 -0.673,1.5 -1.5,1.5z"/>
  <path id="svg_7" fill="#ffb81d" d="m22.625,30.044c-0.076,0 -0.151,-0.018 -0.222,-0.052l-6.403,-3.174l-6.403,3.174c-0.165,0.081 -0.364,0.067 -0.516,-0.044c-0.15,-0.109 -0.228,-0.293 -0.201,-0.477l1.04,-7.07l-4.998,-5.11c-0.13,-0.133 -0.176,-0.327 -0.118,-0.504s0.208,-0.308 0.392,-0.339l7.047,-1.197l0.898,-1.716c0.129,-0.244 0.434,-0.336 0.676,-0.211c0.244,0.129 0.339,0.431 0.211,0.676l-1.014,1.935c-0.073,0.138 -0.206,0.234 -0.359,0.261l-6.35,1.079l4.503,4.604c0.109,0.111 0.16,0.268 0.138,0.422l-0.937,6.371l5.77,-2.859c0.139,-0.068 0.305,-0.068 0.443,0l5.77,2.859l-0.937,-6.371c-0.022,-0.154 0.028,-0.311 0.138,-0.422l4.503,-4.604l-6.35,-1.079c-0.153,-0.026 -0.286,-0.123 -0.359,-0.261l-2.987,-5.705l-0.728,1.391c-0.129,0.246 -0.432,0.338 -0.675,0.212c-0.245,-0.128 -0.34,-0.431 -0.212,-0.675l1.171,-2.237c0.174,-0.329 0.713,-0.33 0.887,-0.001l3.314,6.331l7.047,1.197c0.184,0.031 0.334,0.162 0.392,0.339s0.012,0.371 -0.118,0.504l-4.998,5.11l1.04,7.07c0.026,0.184 -0.051,0.367 -0.201,0.477c-0.087,0.064 -0.19,0.096 -0.294,0.096z"/>
 </g>
</svg>